<?xml version="1.0" encoding="utf-8"?>
<!-- Generator: Adobe Illustrator 21.0.0, SVG Export Plug-In . SVG Version: 6.00 Build 0)  -->
<svg version="1.1" id="Layer_1" xmlns="http://www.w3.org/2000/svg" xmlns:xlink="http://www.w3.org/1999/xlink" x="0px" y="0px"
	 viewBox="0 0 755.8 253.2" style="enable-background:new 0 0 755.8 253.2;" xml:space="preserve">
<style type="text/css">
	.st0{clip-path:url(#SVGID_2_);fill:#ffffff;}
</style>
<g>
	<defs>
		<rect id="SVGID_1_" width="755.8" height="253.2"/>
	</defs>
	<clipPath id="SVGID_2_">
		<use xlink:href="#SVGID_1_"  style="overflow:visible;"/>
	</clipPath>
	<path class="st0" d="M128.3,87.8c-11.9,0-18.8,5.4-22.1,9c-0.4-3.2-2.5-7.3-10.7-7.3H77.6v18.6h7.3c1.2,0,1.6,0.4,1.6,1.6v85.1
		h21.2V163c0-0.9,0-1.7,0-2.4c3.3,3,9.6,7.2,19.5,7.2c20.7,0,35.2-16.4,35.2-40C162.5,103.9,148.7,87.8,128.3,87.8 M124,149.3
		c-11.4,0-16.6-10.9-16.6-21.1c0-16,8.7-21.7,16.9-21.7c10,0,16.8,8.6,16.8,21.5C141,142.8,132.4,149.3,124,149.3"/>
	<path class="st0" d="M191,146v-45.1c0-7.6-3.7-11.3-11.2-11.3h-19v18.6h7.3c1.2,0,1.6,0.4,1.6,1.6v44.9c0,7.7,3.6,11.3,11.2,11.3
		h19v-18.5h-7.3C191.5,147.6,191,147.1,191,146"/>
	<path class="st0" d="M246.4,87.8c-11.9,0-18.8,5.4-22.2,9c-0.4-3.2-2.5-7.3-10.7-7.3h-17.8v18.6h7.3c1.2,0,1.6,0.4,1.6,1.6v85.1
		H226V163c0-0.9,0-1.7,0-2.4c3.3,3,9.7,7.2,19.5,7.2c20.7,0,35.2-16.4,35.2-40C280.7,103.9,266.9,87.8,246.4,87.8 M242.1,149.3
		c-11.4,0-16.6-10.9-16.6-21.1c0-16,8.7-21.7,16.9-21.7c10,0,16.8,8.6,16.8,21.5C259.2,142.8,250.6,149.3,242.1,149.3"/>
	<path class="st0" d="M320.6,87.8c-22.9,0-38.8,16.5-38.8,40c0,23.2,17.2,40,41,40c18.7,0,30.1-11.1,30.6-11.5l0.9-0.8l-9.2-15.3
		l-1.4,1.3c-0.1,0.1-8.5,7.8-19.6,7.8c-10.6,0-18.4-6.5-20.3-16.7h50.3l0.1-1.4c0-0.2,0.5-4.7,0.5-6.9
		C354.7,102.5,341,87.8,320.6,87.8 M304.6,116.8c2.3-7.5,8.1-11.8,16-11.8c6.4,0,11.3,4.9,12.2,11.8H304.6z"/>
	<path class="st0" d="M431.9,146V72.1c0-7.6-3.7-11.3-11.3-11.3h-19v18.6h7.3c1.2,0,1.6,0.4,1.6,1.6v13.4c-3.1-2.8-9.2-6.5-19.8-6.5
		c-20.6,0-35,16.5-35,40c0,23.9,13.8,40,34.2,40c11.7,0,18.5-5.4,21.8-9.2c0.4,3.3,2.6,7.5,10.5,7.5h18.4v-18.5h-7.1
		C432.3,147.6,431.9,147.1,431.9,146 M394,149.3c-10.1,0-16.6-8.4-16.6-21.5c0-12.7,6.8-21.2,16.9-21.2c11.5,0,16.6,10.6,16.6,21.1
		C410.9,143.7,402.2,149.3,394,149.3"/>
	<path class="st0" d="M487.9,88.5c-8.8,0-17,5.1-21.8,13.2V100c0-6.9-3.8-10.5-11.3-10.5h-18.2v18.6h7.3c1.2,0,1.6,0.4,1.6,1.6v56.3
		h21.2v-30.6c0-4,0.5-7.9,1.5-11.5c3.2-10.6,11.7-14.3,18.5-14.3c2.4,0,4.2,0.3,4.2,0.3l1.8,0.3V89.1l-1.3-0.2
		C491.4,88.8,489.6,88.5,487.9,88.5"/>
	<path class="st0" d="M522.9,146v-45.1c0-7.6-3.7-11.3-11.2-11.3h-17.2v18.6h5.5c1.2,0,1.6,0.4,1.6,1.6v44.9
		c0,7.7,3.6,11.3,11.2,11.3h19v-18.5h-7.3C523.4,147.6,522.9,147.1,522.9,146"/>
	<path class="st0" d="M603,89.6h-11.3c-6.6,0-10.2,2.3-12.3,7.9l-13.8,38.6c-0.5,1.4-0.9,3-1.3,4.6c-0.4-1.5-0.9-3.2-1.4-4.6
		l-13.8-38.6c-2.1-5.7-5.5-7.9-12.3-7.9h-12v18.6h3.1c1.7,0,2.2,0.6,2.6,1.6l21.4,56.3h23.9l21.4-56.3c0.4-1,0.9-1.6,2.6-1.6h3.3
		V89.6z"/>
	<path class="st0" d="M639.6,87.8c-22.9,0-38.8,16.5-38.8,40c0,23.2,17.2,40,41,40c18.7,0,30.1-11.1,30.6-11.5l0.9-0.8l-9.2-15.3
		l-1.4,1.3c-0.1,0.1-8.5,7.8-19.5,7.8c-10.6,0-18.4-6.5-20.3-16.7h50.3l0.1-1.4c0-0.2,0.4-4.7,0.4-6.9
		C673.7,102.5,660,87.8,639.6,87.8 M623.6,116.8c2.3-7.5,8.1-11.8,16-11.8c6.4,0,11.3,4.9,12.2,11.8H623.6z"/>
	<rect x="170.6" y="60.7" class="st0" width="18.9" height="19.9"/>
	<rect x="502.6" y="60.7" class="st0" width="18.9" height="19.9"/>
	<polygon class="st0" points="673.3,89.6 676.1,89.6 676.1,97.2 678.2,97.2 678.2,89.6 681,89.6 681,87.8 673.3,87.8 	"/>
	<polygon class="st0" points="689.3,87.8 687.2,94.3 687.2,94.3 685,87.8 682.1,87.8 682.1,97.2 684,97.2 684,90.6 684.1,90.6 
		686.4,97.2 688,97.2 690.3,90.6 690.3,90.6 690.3,97.2 692.2,97.2 692.2,87.8 	"/>
</g>
</svg>
